<?xml version="1.0" encoding="utf-8"?>
<!-- Generator: Adobe Illustrator 18.1.1, SVG Export Plug-In . SVG Version: 6.00 Build 0)  -->
<svg version="1.1" xmlns="http://www.w3.org/2000/svg" xmlns:xlink="http://www.w3.org/1999/xlink" x="0px" y="0px"
	 viewBox="0 0 100 100" enable-background="new 0 0 100 100" xml:space="preserve">
<g id="Background">
	<g>
		<path fill="#8FCDBE" d="M90.2,9.8H77.4V6.1c0-3-2.5-5.5-5.5-5.5h-1.8c-3,0-5.5,2.5-5.5,5.5v3.7H35.4V6.1c0-3-2.5-5.5-5.5-5.5h-1.8
			c-3,0-5.5,2.5-5.5,5.5v3.7H9.8c-5,0-9.1,4.1-9.1,9.1v71.3c0,5,4.1,9.1,9.1,9.1h80.5c5,0,9.1-4.1,9.1-9.1V18.9
			C99.4,13.9,95.3,9.8,90.2,9.8z M9.8,13.4h12.8v3.7c0,3,2.5,5.5,5.5,5.5h5.5c1,0,1.8-0.8,1.8-1.8c0-1-0.8-1.8-1.8-1.8h-5.5
			c-1,0-1.8-0.8-1.8-1.8v-11c0-1,0.8-1.8,1.8-1.8h1.8c1,0,1.8,0.8,1.8,1.8v3.7c-1,0-1.8,0.8-1.8,1.8c0,1,0.8,1.8,1.8,1.8h32.9v3.7
			c0,3,2.5,5.5,5.5,5.5h5.5c1,0,1.8-0.8,1.8-1.8c0-1-0.8-1.8-1.8-1.8h-5.5c-1,0-1.8-0.8-1.8-1.8v-11c0-1,0.8-1.8,1.8-1.8h1.8
			c1,0,1.8,0.8,1.8,1.8v3.7c-1,0-1.8,0.8-1.8,1.8c0,1,0.8,1.8,1.8,1.8h16.5c3,0,5.5,2.5,5.5,5.5v14.6H4.3V18.9
			C4.3,15.9,6.7,13.4,9.8,13.4z M90.2,95.7H9.8c-3,0-5.5-2.5-5.5-5.5v-53h91.4v53C95.7,93.3,93.3,95.7,90.2,95.7z"/>
	</g>
</g>
<g id="Objects">
</g>
</svg>
