<?xml version="1.0" encoding="utf-8"?>
<!-- Generator: Adobe Illustrator 18.1.1, SVG Export Plug-In . SVG Version: 6.00 Build 0)  -->
<svg version="1.1" id="Layer_1" xmlns="http://www.w3.org/2000/svg" xmlns:xlink="http://www.w3.org/1999/xlink" x="0px" y="0px"
	 viewBox="362 9 300 750" enable-background="new 362 9 300 750" xml:space="preserve">
<g>
	<g>
		<linearGradient id="SVGID_1_" gradientUnits="userSpaceOnUse" x1="416.4786" y1="384" x2="607.5214" y2="384">
			<stop  offset="0" style="stop-color:#0090AA"/>
			<stop  offset="0.9951" style="stop-color:#00A89C"/>
		</linearGradient>
		<path fill="none" stroke="url(#SVGID_1_)" stroke-width="2" stroke-miterlimit="10" d="M421.2,375.8c0,0,3.6-9.7,2.9-51.7
			c-0.6-41.9,3.2-49.7,4.9-57.9c1.7-8.1,4.2-35.7,5.9-68.2s5.2-32.5,9.5-40.3c4.2-7.8,36.7-15.2,41.2-17.3
			c4.6-1.9,10.1-6.1,10.8-9.7c0.6-3.6,0-20.5,0-20.5c-9.1-8.4-10.1-22.3-10.1-22.3c-3.2,0.3-3.6-5.1-3.7-6.8s-2.3-9.5-2.2-13.3
			c0.1-3.8,4.9-2.6,4.9-2.6c0-30.6,15.9-33.7,26.9-33.7c11,0,26.9,3.1,26.9,33.7c0,0,4.7-1.4,4.9,2.6c0.1,3.8-2,11.6-2.2,13.3
			c-0.1,1.7-0.4,7-3.7,6.8c0,0-0.9,13.8-10.1,22.3c0,0-0.6,16.9,0,20.5c0.6,3.6,6.1,7.8,10.8,9.7c4.6,1.9,37,9.5,41.2,17.3
			s7.8,7.8,9.5,40.3s4.2,60,5.9,68.2c1.7,8.1,5.5,15.9,4.9,57.9c-0.6,41.9,2.9,51.7,2.9,51.7s5.9,29.2,2.6,36.1
			c-3.2,6.8-7.2,11.6-9.1,11.4c-1.9-0.4-1-3.8-1-3.8s-8.1,5.2-10.1,4c-1.9-1.3-2.6-0.4-4.2-2.6c-1.7-2.3,1.3-4.6,1.3-4.6
			s-1.9-0.6-3.2-2.3c-1.3-1.7,9.1-7.4,9.1-15.6c0-8.1-1.7-17.2,1-26.6c2.6-9.5-11.6-36.4-14-65c-2.3-28.5,0.6-28.3-1.7-37.6
			c-2.3-9.5-12-42.9-12-54.3c0-0.5,0-0.9,0-1.3c0,0-2.6,15.9-6.8,20.7c-4.2,4.9-6.5,36.1-5.2,39.9c1.3,3.8,25,56.8,24.7,91.6
			c-0.4,34.8-15.9,99.7-15.1,111.1c0.8,11.4,5,45.8,5.4,73.7c0.4,27.9-18.8,93.6-18.2,122.5c0.6,28.9,11.6,47.5,8.4,52.6
			c-3.2,5.2-13.7,8.4-17.3,8.4c0,0-2.6,3.2-7.2,1.9c-4.6-1.3-5.9-12.3-4.9-24.3s0.6-27.9-1.7-34.8c-2.3-6.8,8.1-15.9,6.5-26.6
			c-1.7-10.8,1.9-19.2-2.6-47.7c-4.6-28.5-3.6-57.5-0.6-71.4c2.9-14-3.6-44.5-6.1-53.6c-2.6-9.1-9.1-76.3-9.1-76.3
			s-6.4,67.2-9.1,76.3c-2.6,9.1-9.1,39.7-6.1,53.6c2.9,14,3.8,42.9-0.6,71.4c-4.6,28.5-1,37-2.6,47.7c-1.7,10.8,8.8,19.8,6.5,26.6
			s-2.6,22.8-1.7,34.8c1,12-0.4,23-4.9,24.3c-4.6,1.3-7.2-1.9-7.2-1.9c-3.6,0-14-3.2-17.3-8.4c-3.2-5.2,7.8-23.7,8.4-52.6
			c0.6-28.9-18.6-94.5-18.2-122.5c0.4-27.9,4.6-62.3,5.4-73.7s-14.7-76.3-15.1-111.1s23.4-87.7,24.7-91.6c1.3-3.8-1-35.1-5.2-39.9
			s-6.8-20.7-6.8-20.7c0,0.4,0,0.8,0,1.3c0,11.4-9.7,44.8-12,54.3c-2.3,9.5,0.6,9.1-1.7,37.6c-2.3,28.5-16.5,55.6-14,65
			c2.6,9.5,1,18.6,1,26.6c0,8.1,10.4,14,9.1,15.6c-1.3,1.7-3.2,2.3-3.2,2.3s2.9,2.3,1.3,4.6c-1.7,2.3-2.3,1.3-4.2,2.6
			c-1.9,1.3-10.1-4-10.1-4s1,3.6-1,3.8c-1.9,0.4-5.9-4.6-9.1-11.4C415.3,405,421.2,375.8,421.2,375.8z"/>
	</g>
	<defs>
		<filter id="Adobe_OpacityMaskFilter" filterUnits="userSpaceOnUse" x="416.5" y="30.6" width="191" height="706.8">
			<feColorMatrix  type="matrix" values="1 0 0 0 0  0 1 0 0 0  0 0 1 0 0  0 0 0 1 0"/>
		</filter>
	</defs>
	<mask maskUnits="userSpaceOnUse" x="416.5" y="30.6" width="191" height="706.8" id="SVGID_2_">
		<g filter="url(#Adobe_OpacityMaskFilter)">
			
				<image overflow="visible" enable-background="new    " width="319" height="1158" xlink:href="B13D31AF84074CA7.jpeg"  transform="matrix(0.6086 0 0 0.6128 415.0263 29.3153)">
			</image>
		</g>
	</mask>
	<g opacity="0.75" mask="url(#SVGID_2_)">
		<linearGradient id="SVGID_3_" gradientUnits="userSpaceOnUse" x1="416.4786" y1="384" x2="607.5214" y2="384">
			<stop  offset="0" style="stop-color:#0090AA"/>
			<stop  offset="0.9951" style="stop-color:#00A89C"/>
		</linearGradient>
		<path fill="none" stroke="url(#SVGID_3_)" stroke-width="2" stroke-miterlimit="10" d="M421.2,375.8c0,0,3.6-9.7,2.9-51.7
			c-0.6-41.9,3.2-49.7,4.9-57.9c1.7-8.1,4.2-35.7,5.9-68.2s5.2-32.5,9.5-40.3c4.2-7.8,36.7-15.2,41.2-17.3
			c4.6-1.9,10.1-6.1,10.8-9.7c0.6-3.6,0-20.5,0-20.5c-9.1-8.4-10.1-22.3-10.1-22.3c-3.2,0.3-3.6-5.1-3.7-6.8s-2.3-9.5-2.2-13.3
			c0.1-3.8,4.9-2.6,4.9-2.6c0-30.6,15.9-33.7,26.9-33.7c11,0,26.9,3.1,26.9,33.7c0,0,4.7-1.4,4.9,2.6c0.1,3.8-2,11.6-2.2,13.3
			c-0.1,1.7-0.4,7-3.7,6.8c0,0-0.9,13.8-10.1,22.3c0,0-0.6,16.9,0,20.5c0.6,3.6,6.1,7.8,10.8,9.7c4.6,1.9,37,9.5,41.2,17.3
			s7.8,7.8,9.5,40.3s4.2,60,5.9,68.2c1.7,8.1,5.5,15.9,4.9,57.9c-0.6,41.9,2.9,51.7,2.9,51.7s5.9,29.2,2.6,36.1
			c-3.2,6.8-7.2,11.6-9.1,11.4c-1.9-0.4-1-3.8-1-3.8s-8.1,5.2-10.1,4c-1.9-1.3-2.6-0.4-4.2-2.6c-1.7-2.3,1.3-4.6,1.3-4.6
			s-1.9-0.6-3.2-2.3c-1.3-1.7,9.1-7.4,9.1-15.6c0-8.1-1.7-17.2,1-26.6c2.6-9.5-11.6-36.4-14-65c-2.3-28.5,0.6-28.3-1.7-37.6
			c-2.3-9.5-12-42.9-12-54.3c0-0.5,0-0.9,0-1.3c0,0-2.6,15.9-6.8,20.7c-4.2,4.9-6.5,36.1-5.2,39.9c1.3,3.8,25,56.8,24.7,91.6
			c-0.4,34.8-15.9,99.7-15.1,111.1c0.8,11.4,5,45.8,5.4,73.7c0.4,27.9-18.8,93.6-18.2,122.5c0.6,28.9,11.6,47.5,8.4,52.6
			c-3.2,5.2-13.7,8.4-17.3,8.4c0,0-2.6,3.2-7.2,1.9c-4.6-1.3-5.9-12.3-4.9-24.3s0.6-27.9-1.7-34.8c-2.3-6.8,8.1-15.9,6.5-26.6
			c-1.7-10.8,1.9-19.2-2.6-47.7c-4.6-28.5-3.6-57.5-0.6-71.4c2.9-14-3.6-44.5-6.1-53.6c-2.6-9.1-9.1-76.3-9.1-76.3
			s-6.4,67.2-9.1,76.3c-2.6,9.1-9.1,39.7-6.1,53.6c2.9,14,3.8,42.9-0.6,71.4c-4.6,28.5-1,37-2.6,47.7c-1.7,10.8,8.8,19.8,6.5,26.6
			s-2.6,22.8-1.7,34.8c1,12-0.4,23-4.9,24.3c-4.6,1.3-7.2-1.9-7.2-1.9c-3.6,0-14-3.2-17.3-8.4c-3.2-5.2,7.8-23.7,8.4-52.6
			c0.6-28.9-18.6-94.5-18.2-122.5c0.4-27.9,4.6-62.3,5.4-73.7s-14.7-76.3-15.1-111.1s23.4-87.7,24.7-91.6c1.3-3.8-1-35.1-5.2-39.9
			s-6.8-20.7-6.8-20.7c0,0.4,0,0.8,0,1.3c0,11.4-9.7,44.8-12,54.3c-2.3,9.5,0.6,9.1-1.7,37.6c-2.3,28.5-16.5,55.6-14,65
			c2.6,9.5,1,18.6,1,26.6c0,8.1,10.4,14,9.1,15.6c-1.3,1.7-3.2,2.3-3.2,2.3s2.9,2.3,1.3,4.6c-1.7,2.3-2.3,1.3-4.2,2.6
			c-1.9,1.3-10.1-4-10.1-4s1,3.6-1,3.8c-1.9,0.4-5.9-4.6-9.1-11.4C415.3,405,421.2,375.8,421.2,375.8z"/>
	</g>
</g>
</svg>
