<?xml version="1.0" encoding="utf-8"?>
<!-- Generator: Adobe Illustrator 18.1.1, SVG Export Plug-In . SVG Version: 6.00 Build 0)  -->
<svg version="1.1" id="Layer_1" xmlns="http://www.w3.org/2000/svg" xmlns:xlink="http://www.w3.org/1999/xlink" x="0px" y="0px"
	 viewBox="64.3 620.5 48 48" enable-background="new 64.3 620.5 48 48" xml:space="preserve">
<path fill="#8FCDBE" d="M107.1,623.6c0-0.1,0-0.1-0.1-0.2c0,0,0,0,0,0c-0.1-0.1-0.2-0.2-0.3-0.3c0,0,0,0,0,0c0,0,0,0,0,0
	c-0.4-0.2-8.7-3.3-13.2-0.2c-1.8,1.3-2.7,3.4-2.6,6.4c-1,0.9-1.7,1.8-2.2,2.5c-0.9-3.8-3.9-4.9-4-4.9c-0.3-0.1-0.7,0.1-0.8,0.4
	c-0.1,0.4,0.1,0.7,0.4,0.8c0,0,4.3,1.5,3,8c-2.4-0.9-4.7-1.5-6.9-1.5c-6.8,0-11,4.9-11,12.8c0,10.2,10.1,19.9,13.9,19.9
	c2.4,0,3.8-0.7,4.4-1.1c0.7,0.5,2,1.1,4.4,1.1c3.8,0,13.9-9.7,13.9-19.9c0-7.9-4.2-12.8-11-12.8c-2,0-4.2,0.5-6.4,1.3
	c0.1-0.7,0.2-1.4,0.2-2c0.2-0.4,1-1.8,2.7-3.5c0.9,0.7,2.7,1.8,5.2,1.6c3.5-0.3,6.9-3,10.2-8c0,0,0,0,0,0c0-0.1,0.1-0.2,0.1-0.2
	C107.1,623.8,107.1,623.7,107.1,623.6z M104.8,647.6c0,9.8-9.7,18.6-12.6,18.6c-2.9,0-3.9-1.1-3.9-1.1c-0.1-0.2-0.3-0.2-0.5-0.2
	c0,0,0,0,0,0c-0.2,0-0.4,0.1-0.5,0.2c0,0-1,1.1-3.9,1.1c-2.9,0-12.6-8.8-12.6-18.6c0-7.2,3.6-11.5,9.7-11.5c2.2,0,4.5,0.5,7.1,1.6
	c0,0,0,0,0,0c0,0,0,0,0,0c0.1,0,0.1,0,0.2,0c0.1,0,0.2,0,0.3-0.1c2.5-1.1,4.9-1.6,7.1-1.6C101.2,636.1,104.8,640.4,104.8,647.6z
	 M94.3,624c1.2-0.9,2.8-1.2,4.4-1.2c1.5,0,3,0.3,4.3,0.5c-4.9,0.8-8.4,2.7-10.8,4.6C92.5,626.2,93.1,624.9,94.3,624z M96.8,630.7
	c-2,0.2-3.4-0.6-4.1-1.1c2.5-2.2,6.5-4.5,12.5-5.1C102.3,628.4,99.5,630.5,96.8,630.7z"/>
</svg>
