<?xml version="1.0" encoding="utf-8"?>
<!-- Generator: Adobe Illustrator 18.1.1, SVG Export Plug-In . SVG Version: 6.00 Build 0)  -->
<svg version="1.1" id="Layer_1" xmlns="http://www.w3.org/2000/svg" xmlns:xlink="http://www.w3.org/1999/xlink" x="0px" y="0px"
	 viewBox="-1.7 519.5 180 250" enable-background="new -1.7 519.5 180 250" xml:space="preserve">
<g>
	<path fill="#8FCDBE" d="M88.3,766.4l-3.1-3.7c-0.5-0.6-49.1-58.5-74.9-117.7C4.8,633.7,2,621.3,2,608.4c0-47.3,38.7-85.7,86.3-85.7
		c47.6,0,86.3,38.5,86.3,85.7c0,12.7-2.8,25.1-8.4,36.8c-25.8,59.1-74.2,116.9-74.7,117.5L88.3,766.4z M88.3,530.9
		c-43,0-78.1,34.8-78.1,77.5c0,11.7,2.5,22.9,7.5,33.2c21.6,49.5,59.5,98.2,70.6,111.9c11.1-13.8,48.8-62.4,70.4-111.8
		c5.1-10.7,7.7-21.9,7.7-33.3C166.4,565.7,131.3,530.9,88.3,530.9z"/>
	<path fill="#8FCDBE" d="M88.3,652.6c-24.9,0-45.2-20.3-45.2-45.2c0-24.9,20.3-45.2,45.2-45.2c24.9,0,45.2,20.3,45.2,45.2
		C133.5,632.4,113.2,652.6,88.3,652.6z M88.3,570.5c-20.4,0-37,16.6-37,37c0,20.4,16.6,37,37,37c20.4,0,37-16.6,37-37
		C125.3,587,108.7,570.5,88.3,570.5z"/>
</g>
</svg>
