<?xml version="1.0" encoding="utf-8"?>
<!-- Generator: Adobe Illustrator 18.1.1, SVG Export Plug-In . SVG Version: 6.00 Build 0)  -->
<svg version="1.1" id="Layer_1" xmlns="http://www.w3.org/2000/svg" xmlns:xlink="http://www.w3.org/1999/xlink" x="0px" y="0px"
	 viewBox="720 9 300 750" enable-background="new 720 9 300 750" xml:space="preserve">
<g>
	<g>
		
			<linearGradient id="SVGID_1_" gradientUnits="userSpaceOnUse" x1="377.3673" y1="384" x2="590.6326" y2="384" gradientTransform="matrix(1 0 0 -1 386 768)">
			<stop  offset="0" style="stop-color:#0090AA"/>
			<stop  offset="0.9951" style="stop-color:#00A89C"/>
		</linearGradient>
		<path fill="none" stroke="url(#SVGID_1_)" stroke-width="1.9734" stroke-miterlimit="10" d="M764.8,286.7
			c2.2-4.9,4.1-16.6,2.9-24.1c-1.4-7.7-2.9-46.5,1.4-56.7c4.2-10.3-0.9-29.2,10.7-47.8c11.3-18.5,37.5-18,37.5-18s24.5-8,27.9-13
			c3.3-4.8,1.5-26.2,1.5-26.2c-6.7-4.9-7.3-19.4-7.3-19.4s-0.5,2.6-3.1,0.9c-2.6-1.7-3.5-18.9-2.8-20.4c0.6-1.5,3.6-1,3.6-1
			s-4-22.5,2.9-34.1c7.1-11.4,23.6-13.2,30.1-13.2c6.4,0,23,1.7,29.9,13.2c6.9,11.6,2.9,34.1,2.9,34.1s2.9-0.5,3.6,1
			c0.6,1.5-0.1,18.6-2.8,20.4c-2.6,1.7-3.1-0.9-3.1-0.9s-0.6,14.5-7.3,19.4c0,0-1.7,21.5,1.7,26.4c3.5,4.9,27.9,13,27.9,13
			s26-0.6,37.5,18c11.3,18.5,6.3,37.5,10.7,47.8c4.3,10.3,2.8,49,1.4,56.7s0.6,19.2,2.9,24.1c2.3,4.9-4.5,85.8-3.6,96.9
			c1,11.1,4.5,40.9,3.3,43.4c-1.4,2.6-10.4,25.4-19.7,26.7c0,0-6.8,4.9-9.2,3.5c-2.4-1.5,0.5-4.9,0.5-4.9s-1.9,0.4-3.1-0.9
			c-1.2-1.2,9-11.1,9-11.1s-5,2.3-6.8,0.1c-1.7-2,13.1-9.9,15.7-15.7c2.6-5.8-0.9-9.6-0.9-9.6l-4.3,2c0,0-4,13.5-6.9,13.6
			c-2.9,0.1-4.8,0.1-2.4-15.7c0,0-3.5-11.7-0.6-17.1c2.8-5.3,5.8-6.7,5.8-12.2c0-5.7-8.3-34.8-11.1-51.1
			c-2.8-16.2,2.4-47.8-0.4-53.8c-2.8-6.2-5.9-20.6-6.2-31c-0.1-10.4-2.9-24.1-5.4-27.5c-2.6-3.5,1.2,19.7-4.5,34.6
			c-5.7,14.8-1.8,40.6,1,51.7C928,320,937,382,937.9,404.7c0.9,22.7-5.5,106.6-4.8,118.7c0.9,12.1,6.7,29.2,6.7,63.9
			c0,34.7-5.8,37.6-10.8,52.2c-4.9,14.5-9.9,52.2-9.4,59.1c0,0,3.1,4.9,3.2,7.8c0.1,2.9,0,6.4,1,10.1c1,3.6,11.3,28.8,8.3,32.4
			c-3.1,3.6-21.1,3.9-27.4,3.5c0,0-1.5,2.9-7.8,1.9s-5.4-23.1-3.6-34.7s-3.6-14.5-1.9-21.8c1.7-7.3,4.9-10.7,5.3-13.8
			c0.4-3.3,2.9-40.9-1.5-59.1c-4.4-18.2-3.7-46,0.5-58.2c4.3-12.2-2-19-6.7-33.8c-4.5-14.8-6.9-50.8-6.9-66.6s-5.3-26.9-7.8-36.1
			c-2.6-9.2-2.3-22.5-2.3-22.5l-2-0.9l-2,0.9c0,0,0.4,13.2-2.3,22.5c-2.6,9.2-7.8,20.2-7.8,36.1c0,15.8-2.4,51.8-6.9,66.6
			c-4.5,14.8-10.9,21.6-6.7,33.8c4.3,12.2,4.9,40.1,0.5,58.2s-1.9,55.8-1.5,59.1c0.4,3.3,3.6,6.4,5.3,13.8
			c1.7,7.3-3.7,10.3-1.9,21.8c1.9,11.6,2.8,33.7-3.6,34.7s-7.8-1.9-7.8-1.9c-6.3,0.5-24.4,0.1-27.4-3.5c-3.1-3.6,7.3-28.8,8.3-32.4
			c1-3.6,0.9-7.2,1-10.1c0.1-2.9,3.2-7.8,3.2-7.8c0.5-6.9-4.4-44.6-9.4-59.1c-4.9-14.5-10.8-17.5-10.8-52.2
			c0-34.7,5.8-51.8,6.7-63.9s-5.5-96.1-4.8-118.7c0.9-22.6,9.9-84.9,12.6-95.9c2.8-11.1,6.7-36.7,1-51.7c-5.7-14.8-2-38-4.5-34.6
			c-2.6,3.5-5.3,17.2-5.4,27.5c-0.1,10.4-3.5,24.9-6.2,31c-2.8,6.2,2.4,37.6-0.4,53.8c-2.8,16.2-11.1,45.5-11.1,51.1
			c0,5.7,3.1,6.9,5.8,12.2s-0.6,17.1-0.6,17.1c2.4,15.8,0.5,15.8-2.4,15.7c-2.9-0.1-6.9-13.6-6.9-13.6l-4.3-2c0,0-3.5,3.7-0.9,9.6
			s17.5,13.6,15.7,15.7c-1.7,2-6.8-0.1-6.8-0.1s10.3,9.9,9,11.1c-1.2,1.2-3.1,0.9-3.1,0.9s2.9,3.5,0.5,4.9c-2.4,1.5-9.2-3.5-9.2-3.5
			c-9.4-1.4-18.5-24.3-19.7-26.7c-1.4-2.6,2.3-32.4,3.3-43.4C769.4,372.5,762.6,291.6,764.8,286.7z"/>
	</g>
	<defs>
		<filter id="Adobe_OpacityMaskFilter" filterUnits="userSpaceOnUse" x="763.4" y="12.6" width="213.3" height="742.8">
			<feColorMatrix  type="matrix" values="1 0 0 0 0  0 1 0 0 0  0 0 1 0 0  0 0 0 1 0"/>
		</filter>
	</defs>
	<mask maskUnits="userSpaceOnUse" x="763.4" y="12.6" width="213.3" height="742.8" id="SVGID_2_">
		<g filter="url(#Adobe_OpacityMaskFilter)">
			
				<image overflow="visible" enable-background="new    " width="362" height="1239" xlink:href="102B40CE398C1FAE.jpg"  transform="matrix(0.5999 0 0 0.6018 761.6959 10.9916)">
			</image>
		</g>
	</mask>
	<g opacity="0.75" mask="url(#SVGID_2_)">
		
			<linearGradient id="SVGID_3_" gradientUnits="userSpaceOnUse" x1="377.3673" y1="384" x2="590.6326" y2="384" gradientTransform="matrix(1 0 0 -1 386 768)">
			<stop  offset="0" style="stop-color:#0090AA"/>
			<stop  offset="0.9951" style="stop-color:#00A89C"/>
		</linearGradient>
		<path fill="none" stroke="url(#SVGID_3_)" stroke-width="1.9734" stroke-miterlimit="10" d="M764.8,286.7
			c2.2-4.9,4.1-16.6,2.9-24.1c-1.4-7.7-2.9-46.5,1.4-56.7c4.2-10.3-0.9-29.2,10.7-47.8c11.3-18.5,37.5-18,37.5-18s24.5-8,27.9-13
			c3.3-4.8,1.5-26.2,1.5-26.2c-6.7-4.9-7.3-19.4-7.3-19.4s-0.5,2.6-3.1,0.9c-2.6-1.7-3.5-18.9-2.8-20.4c0.6-1.5,3.6-1,3.6-1
			s-4-22.5,2.9-34.1c7.1-11.4,23.6-13.2,30.1-13.2c6.4,0,23,1.7,29.9,13.2c6.9,11.6,2.9,34.1,2.9,34.1s2.9-0.5,3.6,1
			c0.6,1.5-0.1,18.6-2.8,20.4c-2.6,1.7-3.1-0.9-3.1-0.9s-0.6,14.5-7.3,19.4c0,0-1.7,21.5,1.7,26.4c3.5,4.9,27.9,13,27.9,13
			s26-0.6,37.5,18c11.3,18.5,6.3,37.5,10.7,47.8c4.3,10.3,2.8,49,1.4,56.7s0.6,19.2,2.9,24.1c2.3,4.9-4.5,85.8-3.6,96.9
			c1,11.1,4.5,40.9,3.3,43.4c-1.4,2.6-10.4,25.4-19.7,26.7c0,0-6.8,4.9-9.2,3.5c-2.4-1.5,0.5-4.9,0.5-4.9s-1.9,0.4-3.1-0.9
			c-1.2-1.2,9-11.1,9-11.1s-5,2.3-6.8,0.1c-1.7-2,13.1-9.9,15.7-15.7c2.6-5.8-0.9-9.6-0.9-9.6l-4.3,2c0,0-4,13.5-6.9,13.6
			c-2.9,0.1-4.8,0.1-2.4-15.7c0,0-3.5-11.7-0.6-17.1c2.8-5.3,5.8-6.7,5.8-12.2c0-5.7-8.3-34.8-11.1-51.1
			c-2.8-16.2,2.4-47.8-0.4-53.8c-2.8-6.2-5.9-20.6-6.2-31c-0.1-10.4-2.9-24.1-5.4-27.5c-2.6-3.5,1.2,19.7-4.5,34.6
			c-5.7,14.8-1.8,40.6,1,51.7C928,320,937,382,937.9,404.7c0.9,22.7-5.5,106.6-4.8,118.7c0.9,12.1,6.7,29.2,6.7,63.9
			c0,34.7-5.8,37.6-10.8,52.2c-4.9,14.5-9.9,52.2-9.4,59.1c0,0,3.1,4.9,3.2,7.8c0.1,2.9,0,6.4,1,10.1c1,3.6,11.3,28.8,8.3,32.4
			c-3.1,3.6-21.1,3.9-27.4,3.5c0,0-1.5,2.9-7.8,1.9s-5.4-23.1-3.6-34.7s-3.6-14.5-1.9-21.8c1.7-7.3,4.9-10.7,5.3-13.8
			c0.4-3.3,2.9-40.9-1.5-59.1c-4.4-18.2-3.7-46,0.5-58.2c4.3-12.2-2-19-6.7-33.8c-4.5-14.8-6.9-50.8-6.9-66.6s-5.3-26.9-7.8-36.1
			c-2.6-9.2-2.3-22.5-2.3-22.5l-2-0.9l-2,0.9c0,0,0.4,13.2-2.3,22.5c-2.6,9.2-7.8,20.2-7.8,36.1c0,15.8-2.4,51.8-6.9,66.6
			c-4.5,14.8-10.9,21.6-6.7,33.8c4.3,12.2,4.9,40.1,0.5,58.2s-1.9,55.8-1.5,59.1c0.4,3.3,3.6,6.4,5.3,13.8
			c1.7,7.3-3.7,10.3-1.9,21.8c1.9,11.6,2.8,33.7-3.6,34.7s-7.8-1.9-7.8-1.9c-6.3,0.5-24.4,0.1-27.4-3.5c-3.1-3.6,7.3-28.8,8.3-32.4
			c1-3.6,0.9-7.2,1-10.1c0.1-2.9,3.2-7.8,3.2-7.8c0.5-6.9-4.4-44.6-9.4-59.1c-4.9-14.5-10.8-17.5-10.8-52.2
			c0-34.7,5.8-51.8,6.7-63.9s-5.5-96.1-4.8-118.7c0.9-22.6,9.9-84.9,12.6-95.9c2.8-11.1,6.7-36.7,1-51.7c-5.7-14.8-2-38-4.5-34.6
			c-2.6,3.5-5.3,17.2-5.4,27.5c-0.1,10.4-3.5,24.9-6.2,31c-2.8,6.2,2.4,37.6-0.4,53.8c-2.8,16.2-11.1,45.5-11.1,51.1
			c0,5.7,3.1,6.9,5.8,12.2s-0.6,17.1-0.6,17.1c2.4,15.8,0.5,15.8-2.4,15.7c-2.9-0.1-6.9-13.6-6.9-13.6l-4.3-2c0,0-3.5,3.7-0.9,9.6
			s17.5,13.6,15.7,15.7c-1.7,2-6.8-0.1-6.8-0.1s10.3,9.9,9,11.1c-1.2,1.2-3.1,0.9-3.1,0.9s2.9,3.5,0.5,4.9c-2.4,1.5-9.2-3.5-9.2-3.5
			c-9.4-1.4-18.5-24.3-19.7-26.7c-1.4-2.6,2.3-32.4,3.3-43.4C769.4,372.5,762.6,291.6,764.8,286.7z"/>
	</g>
</g>
</svg>
