<?xml version="1.0" encoding="utf-8"?>
<!-- Generator: Adobe Illustrator 18.1.1, SVG Export Plug-In . SVG Version: 6.00 Build 0)  -->
<svg version="1.1" id="Layer_1" xmlns="http://www.w3.org/2000/svg" xmlns:xlink="http://www.w3.org/1999/xlink" x="0px" y="0px"
	 viewBox="387 0 250 768" enable-background="new 387 0 250 768" xml:space="preserve">
<g>
	<g>
		
			<linearGradient id="SVGID_1_" gradientUnits="userSpaceOnUse" x1="-326.8843" y1="375.2109" x2="-111.5945" y2="375.2109" gradientTransform="matrix(1.024 0 0 1.024 736.384 -0.216)">
			<stop  offset="0" style="stop-color:#0090AA"/>
			<stop  offset="0.9951" style="stop-color:#00A89C"/>
		</linearGradient>
		<path fill="none" stroke="url(#SVGID_1_)" stroke-width="4" stroke-miterlimit="10" d="M404.2,284.3c2.3-5,4.2-17,3-24.7
			c-1.4-7.9-3-47.6,1.4-58.1c4.3-10.5-0.9-29.9,11-48.9c11.6-18.9,38.4-18.4,38.4-18.4s25.1-8.2,28.6-13.3
			c3.4-4.9,1.5-26.8,1.5-26.8c-6.9-5-7.5-19.9-7.5-19.9s-0.5,2.7-3.2,0.9c-2.7-1.7-3.6-19.4-2.9-20.9c0.6-1.5,3.7-1,3.7-1
			s-4.1-23,3-34.9C488.4,6.5,505.3,4.7,512,4.7c6.6,0,23.6,1.7,30.6,13.5c7.1,11.9,3,34.9,3,34.9s3-0.5,3.7,1
			c0.6,1.5-0.1,19-2.9,20.9c-2.7,1.7-3.2-0.9-3.2-0.9S542.6,89,535.7,94c0,0-1.7,22,1.7,27c3.6,5,28.6,13.3,28.6,13.3
			s26.6-0.6,38.4,18.4c11.6,18.9,6.5,38.4,11,48.9c4.4,10.5,2.9,50.2,1.4,58.1c-1.4,7.9,0.6,19.7,3,24.7c2.4,5-4.6,87.9-3.7,99.2
			c1,11.4,4.6,41.9,3.4,44.4c-1.4,2.7-10.6,26-20.2,27.3c0,0-7,5-9.4,3.6c-2.5-1.5,0.5-5,0.5-5s-1.9,0.4-3.2-0.9
			c-1.2-1.2,9.2-11.4,9.2-11.4s-5.1,2.4-7,0.1c-1.7-2,13.4-10.1,16.1-16.1s-0.9-9.8-0.9-9.8l-4.4,2c0,0-4.1,13.8-7.1,13.9
			c-3,0.1-4.9,0.1-2.5-16.1c0,0-3.6-12-0.6-17.5c2.9-5.4,5.9-6.9,5.9-12.5c0-5.8-8.5-35.6-11.4-52.3c-2.9-16.6,2.5-48.9-0.4-55.1
			c-2.9-6.3-6-21.1-6.3-31.7c-0.1-10.6-3-24.7-5.5-28.2c-2.7-3.6,1.2,20.2-4.6,35.4c-5.8,15.2-1.8,41.6,1,52.9
			c2.5,11.5,11.7,75,12.6,98.2s-5.6,109.2-4.9,121.5c0.9,12.4,6.9,29.9,6.9,65.4c0,35.5-5.9,38.5-11.1,53.5
			c-5,14.8-10.1,53.5-9.6,60.5c0,0,3.2,5,3.3,8c0.1,3,0,6.6,1,10.3c1,3.7,11.6,29.5,8.5,33.2c-3.2,3.7-21.6,4-28.1,3.6
			c0,0-1.5,3-8,1.9c-6.5-1-5.5-23.7-3.7-35.5c1.8-11.9-3.7-14.8-1.9-22.3c1.7-7.5,5-11,5.4-14.1c0.4-3.4,3-41.9-1.5-60.5
			c-4.5-18.6-3.8-47.1,0.5-59.6c4.4-12.5-2-19.5-6.9-34.6c-4.6-15.2-7.1-52-7.1-68.2s-5.4-27.5-8-37c-2.7-9.4-2.4-23-2.4-23l-2-0.9
			l-2,0.9c0,0,0.4,13.5-2.4,23c-2.7,9.4-8,20.7-8,37c0,16.2-2.5,53-7.1,68.2c-4.6,15.2-11.2,22.1-6.9,34.6c4.4,12.5,5,41.1,0.5,59.6
			c-4.5,18.5-1.9,57.1-1.5,60.5c0.4,3.4,3.7,6.6,5.4,14.1c1.7,7.5-3.8,10.5-1.9,22.3c1.9,11.9,2.9,34.5-3.7,35.5c-6.6,1-8-1.9-8-1.9
			c-6.5,0.5-25,0.1-28.1-3.6c-3.2-3.7,7.5-29.5,8.5-33.2c1-3.7,0.9-7.4,1-10.3c0.1-3,3.3-8,3.3-8c0.5-7.1-4.5-45.7-9.6-60.5
			c-5-14.8-11.1-17.9-11.1-53.5c0-35.5,5.9-53,6.9-65.4c0.9-12.4-5.6-98.4-4.9-121.5c0.9-23.1,10.1-86.9,12.9-98.2
			c2.9-11.4,6.9-37.6,1-52.9c-5.8-15.2-2-38.9-4.6-35.4c-2.7,3.6-5.4,17.6-5.5,28.2c-0.1,10.6-3.6,25.5-6.3,31.7
			c-2.9,6.3,2.5,38.5-0.4,55.1c-2.9,16.6-11.4,46.6-11.4,52.3c0,5.8,3.2,7.1,5.9,12.5c2.8,5.4-0.6,17.5-0.6,17.5
			c2.5,16.2,0.5,16.2-2.5,16.1c-3-0.1-7.1-13.9-7.1-13.9l-4.4-2c0,0-3.6,3.8-0.9,9.8c2.7,6,17.9,13.9,16.1,16.1c-1.7,2-7-0.1-7-0.1
			s10.5,10.1,9.2,11.4c-1.2,1.2-3.2,0.9-3.2,0.9s3,3.6,0.5,5c-2.5,1.5-9.4-3.6-9.4-3.6c-9.6-1.4-18.9-24.9-20.2-27.3
			c-1.4-2.7,2.4-33.2,3.4-44.4C408.9,372.1,401.9,289.3,404.2,284.3z"/>
	</g>
	<defs>
		<filter id="Adobe_OpacityMaskFilter" filterUnits="userSpaceOnUse" x="401.7" y="2.7" width="220.6" height="762.6">
			<feColorMatrix  type="matrix" values="1 0 0 0 0  0 1 0 0 0  0 0 1 0 0  0 0 0 1 0"/>
		</filter>
	</defs>
	<mask maskUnits="userSpaceOnUse" x="401.7" y="2.7" width="220.6" height="762.6" id="SVGID_2_">
		<g filter="url(#Adobe_OpacityMaskFilter)">
			
				<image overflow="visible" enable-background="new    " width="362" height="1239" xlink:href="102B40CE398C1FAE.jpg"  transform="matrix(0.6143 0 0 0.6162 400.9751 1.9319)">
			</image>
		</g>
	</mask>
	<g opacity="0.75" mask="url(#SVGID_2_)">
		
			<linearGradient id="SVGID_3_" gradientUnits="userSpaceOnUse" x1="-326.8843" y1="375.2109" x2="-111.5945" y2="375.2109" gradientTransform="matrix(1.024 0 0 1.024 736.384 -0.216)">
			<stop  offset="0" style="stop-color:#0090AA"/>
			<stop  offset="0.9951" style="stop-color:#00A89C"/>
		</linearGradient>
		<path fill="none" stroke="url(#SVGID_3_)" stroke-width="4" stroke-miterlimit="10" d="M404.2,284.3c2.3-5,4.2-17,3-24.7
			c-1.4-7.9-3-47.6,1.4-58.1c4.3-10.5-0.9-29.9,11-48.9c11.6-18.9,38.4-18.4,38.4-18.4s25.1-8.2,28.6-13.3
			c3.4-4.9,1.5-26.8,1.5-26.8c-6.9-5-7.5-19.9-7.5-19.9s-0.5,2.7-3.2,0.9c-2.7-1.7-3.6-19.4-2.9-20.9c0.6-1.5,3.7-1,3.7-1
			s-4.1-23,3-34.9C488.4,6.5,505.3,4.7,512,4.7c6.6,0,23.6,1.7,30.6,13.5c7.1,11.9,3,34.9,3,34.9s3-0.5,3.7,1
			c0.6,1.5-0.1,19-2.9,20.9c-2.7,1.7-3.2-0.9-3.2-0.9S542.6,89,535.7,94c0,0-1.7,22,1.7,27c3.6,5,28.6,13.3,28.6,13.3
			s26.6-0.6,38.4,18.4c11.6,18.9,6.5,38.4,11,48.9c4.4,10.5,2.9,50.2,1.4,58.1c-1.4,7.9,0.6,19.7,3,24.7c2.4,5-4.6,87.9-3.7,99.2
			c1,11.4,4.6,41.9,3.4,44.4c-1.4,2.7-10.6,26-20.2,27.3c0,0-7,5-9.4,3.6c-2.5-1.5,0.5-5,0.5-5s-1.9,0.4-3.2-0.9
			c-1.2-1.2,9.2-11.4,9.2-11.4s-5.1,2.4-7,0.1c-1.7-2,13.4-10.1,16.1-16.1s-0.9-9.8-0.9-9.8l-4.4,2c0,0-4.1,13.8-7.1,13.9
			c-3,0.1-4.9,0.1-2.5-16.1c0,0-3.6-12-0.6-17.5c2.9-5.4,5.9-6.9,5.9-12.5c0-5.8-8.5-35.6-11.4-52.3c-2.9-16.6,2.5-48.9-0.4-55.1
			c-2.9-6.3-6-21.1-6.3-31.7c-0.1-10.6-3-24.7-5.5-28.2c-2.7-3.6,1.2,20.2-4.6,35.4c-5.8,15.2-1.8,41.6,1,52.9
			c2.5,11.5,11.7,75,12.6,98.2s-5.6,109.2-4.9,121.5c0.9,12.4,6.9,29.9,6.9,65.4c0,35.5-5.9,38.5-11.1,53.5
			c-5,14.8-10.1,53.5-9.6,60.5c0,0,3.2,5,3.3,8c0.1,3,0,6.6,1,10.3c1,3.7,11.6,29.5,8.5,33.2c-3.2,3.7-21.6,4-28.1,3.6
			c0,0-1.5,3-8,1.9c-6.5-1-5.5-23.7-3.7-35.5c1.8-11.9-3.7-14.8-1.9-22.3c1.7-7.5,5-11,5.4-14.1c0.4-3.4,3-41.9-1.5-60.5
			c-4.5-18.6-3.8-47.1,0.5-59.6c4.4-12.5-2-19.5-6.9-34.6c-4.6-15.2-7.1-52-7.1-68.2s-5.4-27.5-8-37c-2.7-9.4-2.4-23-2.4-23l-2-0.9
			l-2,0.9c0,0,0.4,13.5-2.4,23c-2.7,9.4-8,20.7-8,37c0,16.2-2.5,53-7.1,68.2c-4.6,15.2-11.2,22.1-6.9,34.6c4.4,12.5,5,41.1,0.5,59.6
			c-4.5,18.5-1.9,57.1-1.5,60.5c0.4,3.4,3.7,6.6,5.4,14.1c1.7,7.5-3.8,10.5-1.9,22.3c1.9,11.9,2.9,34.5-3.7,35.5c-6.6,1-8-1.9-8-1.9
			c-6.5,0.5-25,0.1-28.1-3.6c-3.2-3.7,7.5-29.5,8.5-33.2c1-3.7,0.9-7.4,1-10.3c0.1-3,3.3-8,3.3-8c0.5-7.1-4.5-45.7-9.6-60.5
			c-5-14.8-11.1-17.9-11.1-53.5c0-35.5,5.9-53,6.9-65.4c0.9-12.4-5.6-98.4-4.9-121.5c0.9-23.1,10.1-86.9,12.9-98.2
			c2.9-11.4,6.9-37.6,1-52.9c-5.8-15.2-2-38.9-4.6-35.4c-2.7,3.6-5.4,17.6-5.5,28.2c-0.1,10.6-3.6,25.5-6.3,31.7
			c-2.9,6.3,2.5,38.5-0.4,55.1c-2.9,16.6-11.4,46.6-11.4,52.3c0,5.8,3.2,7.1,5.9,12.5c2.8,5.4-0.6,17.5-0.6,17.5
			c2.5,16.2,0.5,16.2-2.5,16.1c-3-0.1-7.1-13.9-7.1-13.9l-4.4-2c0,0-3.6,3.8-0.9,9.8c2.7,6,17.9,13.9,16.1,16.1c-1.7,2-7-0.1-7-0.1
			s10.5,10.1,9.2,11.4c-1.2,1.2-3.2,0.9-3.2,0.9s3,3.6,0.5,5c-2.5,1.5-9.4-3.6-9.4-3.6c-9.6-1.4-18.9-24.9-20.2-27.3
			c-1.4-2.7,2.4-33.2,3.4-44.4C408.9,372.1,401.9,289.3,404.2,284.3z"/>
	</g>
</g>
</svg>
