<?xml version="1.0" encoding="utf-8"?>
<!-- Generator: Adobe Illustrator 18.1.1, SVG Export Plug-In . SVG Version: 6.00 Build 0)  -->
<svg version="1.1" id="Layer_1" xmlns="http://www.w3.org/2000/svg" xmlns:xlink="http://www.w3.org/1999/xlink" x="0px" y="0px"
	 viewBox="64.3 620.5 48 48" enable-background="new 64.3 620.5 48 48" xml:space="preserve">
<path fill="#8FCDBE" d="M110.3,630.6c-9.4,0-16.4,7.4-17.6,8.8h-7.5l4.5-16.8c0-0.2,0-0.4-0.1-0.5c-0.1-0.1-0.3-0.2-0.5-0.2h-9.4
	c-0.1,0-0.2,0.1-0.4,0.1l0,0l-11.1,8.5l0,0c-0.1,0.1-0.2,0.2-0.2,0.3l-2.4,9.1c0,0,0,0,0,0.1c0,0,0,0.1,0,0.1c0,6.8,3.2,10.8,3.4,11
	c0.1,0.1,0.3,0.2,0.5,0.2h13.1l-3.8,6.4c-0.6-0.3-1.3-0.4-2-0.4c-2.8,0-5,2.3-5,5s2.3,5,5,5c2.8,0,5-2.3,5-5c0-1.6-0.8-3.1-2-4
	l4.1-7h6.7l3.2,4.8c-1.4,1.2-2.4,2.9-2.4,4.9c0,3.5,2.9,6.4,6.4,6.4s6.4-2.9,6.4-6.4c0-3.5-2.9-6.4-6.4-6.4c-1.1,0-2.1,0.3-3,0.8
	l-2.8-4.2h10.8c0.4,0,1.2,0,4.3-6.6c0-0.1,0.1-0.2,0.1-0.2V640c0-0.3-0.3-0.6-0.6-0.6H94.4c2.2-2.2,8.4-7.6,16-7.6
	c0.3,0,0.6-0.3,0.6-0.6C110.9,630.9,110.7,630.6,110.3,630.6z M80.6,662.2c0,2.1-1.7,3.9-3.9,3.9c-2.1,0-3.9-1.7-3.9-3.9
	s1.7-3.9,3.9-3.9c0.5,0,1,0.1,1.4,0.3l-1.9,3.3c-0.2,0.3-0.1,0.6,0.2,0.8c0.1,0.1,0.2,0.1,0.3,0.1c0.2,0,0.4-0.1,0.5-0.3l1.9-3.3
	C80.1,660,80.6,661,80.6,662.2z M97.8,655.8c2.9,0,5.2,2.3,5.2,5.2s-2.3,5.2-5.2,5.2s-5.2-2.3-5.2-5.2c0-1.6,0.7-3,1.9-3.9l2.8,4.3
	c0.1,0.2,0.3,0.3,0.5,0.3c0.1,0,0.2,0,0.3-0.1c0.3-0.2,0.3-0.5,0.2-0.8l-2.8-4.3C96.2,656,97,655.8,97.8,655.8z M79.4,623.4
	l4.1,15.3l-13.8-7.9L79.4,623.4z M88.4,623l-3.9,14.7L80.5,623H88.4z M69.1,631.8l13.2,7.6l-15.2,0L69.1,631.8z M106,644.2
	c-1.2,2.5-2.7,5.3-3.2,5.8h-33c-0.6-0.9-2.8-4.3-2.9-9.4l17.6,0H106V644.2z"/>
</svg>
