<?xml version="1.0" encoding="utf-8"?>
<!-- Generator: Adobe Illustrator 18.1.1, SVG Export Plug-In . SVG Version: 6.00 Build 0)  -->
<svg version="1.1" id="Layer_1" xmlns="http://www.w3.org/2000/svg" xmlns:xlink="http://www.w3.org/1999/xlink" x="0px" y="0px"
	 viewBox="488 360 48 48" enable-background="new 488 360 48 48" xml:space="preserve">
<g>
	<g>
		<path fill="#A0B2B7" d="M510.2,363.7l0.8-0.7c0.2-0.2,0.6-0.3,0.9-0.3c0.4,0,0.7,0.1,0.9,0.3l0.8,0.7h3.1l-2.8-2.1
			c-1.1-0.9-3-0.9-4.1,0l-2.8,2.1H510.2z"/>
		<path fill="#A0B2B7" d="M533.6,376.6l-1.9-1.4c0.3,0.7,0.5,1.5,0.6,2.2l0.1,0.7l0.1,0.1c0.1,0.1,0.3,0.2,0.4,0.4l-16.9,9.7
			l1.6,1.2l16-9.2c0,0.1,0,0.1,0,0.2v23.8c0,0,0,0,0,0l-19.5-15c-1.1-0.9-3-0.9-4.1,0l-19.5,15c0,0,0,0,0,0v-23.8c0,0,0,0,0,0
			l15.9,9.2l1.6-1.2l-16.8-9.7c0.1-0.2,0.3-0.4,0.4-0.5l0.1-0.1v-2.4l-1.3,1c-1.1,0.8-1.8,2.4-1.8,3.8v23.9c0,1.5,1.3,2.8,2.8,2.8
			h41.2c1.5,0,2.8-1.3,2.8-2.8v-23.9C535.4,379,534.6,377.4,533.6,376.6z M492.3,405.1l18.8-14.5c0.5-0.4,1.4-0.4,1.8,0l18.8,14.5
			H492.3z"/>
	</g>
	<path fill="#A0B2B7" d="M495.5,378.9v-10.4c0-0.5,0.4-0.9,0.9-0.9h21.7c0.3,0,0.6,0.1,0.9,0.2l0,6.6c0,1.5,1.3,2.8,2.8,2.8h6.6
		c0.1,0.3,0.2,0.7,0.2,0.9v0.7l1.8-1.1c-0.1-1.2-0.7-2.6-1.5-3.4c0,0,0,0,0-0.1l-6.9-6.9c-0.9-0.9-2.6-1.6-3.9-1.6h-21.7
		c-1.5,0-2.8,1.3-2.8,2.8v9.3L495.5,378.9z M527.2,375.3h-5.4c-0.5,0-0.9-0.4-0.9-0.9l0-5.4L527.2,375.3z"/>
</g>
</svg>
