<?xml version="1.0" encoding="utf-8"?>
<!-- Generator: Adobe Illustrator 18.1.1, SVG Export Plug-In . SVG Version: 6.00 Build 0)  -->
<svg version="1.1" id="Layer_1" xmlns="http://www.w3.org/2000/svg" xmlns:xlink="http://www.w3.org/1999/xlink" x="0px" y="0px"
	 viewBox="767 0 250 768" enable-background="new 767 0 250 768" xml:space="preserve">
<g>
	<g>
		
			<linearGradient id="SVGID_1_" gradientUnits="userSpaceOnUse" x1="432.9645" y1="392.7891" x2="626.0046" y2="392.7891" gradientTransform="matrix(1.024 0 0 -1.024 349.712 786.216)">
			<stop  offset="0" style="stop-color:#0090AA"/>
			<stop  offset="0.9951" style="stop-color:#00A89C"/>
		</linearGradient>
		<path fill="none" stroke="url(#SVGID_1_)" stroke-width="4" stroke-miterlimit="10" d="M798.9,375.7c0,0,3.7-9.9,3-52.9
			c-0.6-42.9,3.3-50.9,5-59.3c1.7-8.3,4.3-36.6,6-69.8s5.3-33.3,9.7-41.3c4.3-8,37.6-15.6,42.2-17.7c4.7-1.9,10.3-6.2,11.1-9.9
			c0.6-3.7,0-21,0-21c-9.3-8.6-10.3-22.8-10.3-22.8c-3.3,0.3-3.7-5.2-3.8-7c-0.1-1.7-2.4-9.7-2.3-13.6c0.1-3.9,5-2.7,5-2.7
			c0-31.3,16.3-34.5,27.5-34.5c11.3,0,27.5,3.2,27.5,34.5c0,0,4.8-1.4,5,2.7c0.1,3.9-2,11.9-2.3,13.6c-0.1,1.7-0.4,7.2-3.8,7
			c0,0-0.9,14.1-10.3,22.8c0,0-0.6,17.3,0,21s6.2,8,11.1,9.9c4.7,1.9,37.9,9.7,42.2,17.7c4.3,8,8,8,9.7,41.3
			c1.7,33.3,4.3,61.4,6,69.8c1.7,8.3,5.6,16.3,5,59.3c-0.6,42.9,3,52.9,3,52.9s6,29.9,2.7,37c-3.3,7-7.4,11.9-9.3,11.7
			c-1.9-0.4-1-3.9-1-3.9s-8.3,5.3-10.3,4.1c-1.9-1.3-2.7-0.4-4.3-2.7c-1.7-2.4,1.3-4.7,1.3-4.7s-1.9-0.6-3.3-2.4
			c-1.3-1.7,9.3-7.6,9.3-16c0-8.3-1.7-17.6,1-27.2c2.7-9.7-11.9-37.3-14.3-66.6c-2.4-29.2,0.6-29-1.7-38.5
			c-2.4-9.7-12.3-43.9-12.3-55.6c0-0.5,0-0.9,0-1.3c0,0-2.7,16.3-7,21.2c-4.3,5-6.7,37-5.3,40.9c1.3,3.9,25.6,58.2,25.3,93.8
			c-0.4,35.6-16.3,102.1-15.5,113.8c0.8,11.7,5.1,46.9,5.5,75.5c0.4,28.6-19.3,95.8-18.6,125.4s11.9,48.6,8.6,53.9
			c-3.3,5.3-14,8.6-17.7,8.6c0,0-2.7,3.3-7.4,1.9c-4.7-1.3-6-12.6-5-24.9c1-12.3,0.6-28.6-1.7-35.6c-2.4-7,8.3-16.3,6.7-27.2
			c-1.7-11.1,1.9-19.7-2.7-48.8c-4.7-29.2-3.7-58.9-0.6-73.1c3-14.3-3.7-45.6-6.2-54.9c-2.7-9.3-9.3-78.1-9.3-78.1
			s-6.6,68.8-9.3,78.1c-2.7,9.3-9.3,40.7-6.2,54.9c3,14.3,3.9,43.9-0.6,73.1c-4.7,29.2-1,37.9-2.7,48.8c-1.7,11.1,9,20.3,6.7,27.2
			c-2.4,7-2.7,23.3-1.7,35.6c1,12.3-0.4,23.6-5,24.9c-4.7,1.3-7.4-1.9-7.4-1.9c-3.7,0-14.3-3.3-17.7-8.6c-3.3-5.3,8-24.3,8.6-53.9
			c0.6-29.6-19-96.8-18.6-125.4c0.4-28.6,4.7-63.8,5.5-75.5c0.8-11.7-15.1-78.1-15.5-113.8s24-89.8,25.3-93.8
			c1.3-3.9-1-35.9-5.3-40.9c-4.3-4.9-7-21.2-7-21.2c0,0.4,0,0.8,0,1.3c0,11.7-9.9,45.9-12.3,55.6c-2.4,9.7,0.6,9.3-1.7,38.5
			c-2.4,29.2-16.9,56.9-14.3,66.6c2.7,9.7,1,19,1,27.2c0,8.3,10.6,14.3,9.3,16c-1.3,1.7-3.3,2.4-3.3,2.4s3,2.4,1.3,4.7
			c-1.7,2.4-2.4,1.3-4.3,2.7c-1.9,1.3-10.3-4.1-10.3-4.1s1,3.7-1,3.9c-1.9,0.4-6-4.7-9.3-11.7C792.9,405.6,798.9,375.7,798.9,375.7z
			"/>
	</g>
	<defs>
		<filter id="Adobe_OpacityMaskFilter" filterUnits="userSpaceOnUse" x="793.1" y="21.1" width="197.8" height="725.7">
			<feColorMatrix  type="matrix" values="1 0 0 0 0  0 1 0 0 0  0 0 1 0 0  0 0 0 1 0"/>
		</filter>
	</defs>
	<mask maskUnits="userSpaceOnUse" x="793.1" y="21.1" width="197.8" height="725.7" id="SVGID_2_">
		<g filter="url(#Adobe_OpacityMaskFilter)">
			
				<image overflow="visible" enable-background="new    " width="320" height="1164" xlink:href="B13D31AF84074CA7.jpeg"  transform="matrix(0.6201 0 0 0.6244 792.7711 20.8477)">
			</image>
		</g>
	</mask>
	<g opacity="0.75" mask="url(#SVGID_2_)">
		
			<linearGradient id="SVGID_3_" gradientUnits="userSpaceOnUse" x1="432.9645" y1="392.7891" x2="626.0046" y2="392.7891" gradientTransform="matrix(1.024 0 0 -1.024 349.712 786.216)">
			<stop  offset="0" style="stop-color:#0090AA"/>
			<stop  offset="0.9951" style="stop-color:#00A89C"/>
		</linearGradient>
		<path fill="none" stroke="url(#SVGID_3_)" stroke-width="4" stroke-miterlimit="10" d="M798.9,375.7c0,0,3.7-9.9,3-52.9
			c-0.6-42.9,3.3-50.9,5-59.3c1.7-8.3,4.3-36.6,6-69.8s5.3-33.3,9.7-41.3c4.3-8,37.6-15.6,42.2-17.7c4.7-1.9,10.3-6.2,11.1-9.9
			c0.6-3.7,0-21,0-21c-9.3-8.6-10.3-22.8-10.3-22.8c-3.3,0.3-3.7-5.2-3.8-7c-0.1-1.7-2.4-9.7-2.3-13.6c0.1-3.9,5-2.7,5-2.7
			c0-31.3,16.3-34.5,27.5-34.5c11.3,0,27.5,3.2,27.5,34.5c0,0,4.8-1.4,5,2.7c0.1,3.9-2,11.9-2.3,13.6c-0.1,1.7-0.4,7.2-3.8,7
			c0,0-0.9,14.1-10.3,22.8c0,0-0.6,17.3,0,21s6.2,8,11.1,9.9c4.7,1.9,37.9,9.7,42.2,17.7c4.3,8,8,8,9.7,41.3
			c1.7,33.3,4.3,61.4,6,69.8c1.7,8.3,5.6,16.3,5,59.3c-0.6,42.9,3,52.9,3,52.9s6,29.9,2.7,37c-3.3,7-7.4,11.9-9.3,11.7
			c-1.9-0.4-1-3.9-1-3.9s-8.3,5.3-10.3,4.1c-1.9-1.3-2.7-0.4-4.3-2.7c-1.7-2.4,1.3-4.7,1.3-4.7s-1.9-0.6-3.3-2.4
			c-1.3-1.7,9.3-7.6,9.3-16c0-8.3-1.7-17.6,1-27.2c2.7-9.7-11.9-37.3-14.3-66.6c-2.4-29.2,0.6-29-1.7-38.5
			c-2.4-9.7-12.3-43.9-12.3-55.6c0-0.5,0-0.9,0-1.3c0,0-2.7,16.3-7,21.2c-4.3,5-6.7,37-5.3,40.9c1.3,3.9,25.6,58.2,25.3,93.8
			c-0.4,35.6-16.3,102.1-15.5,113.8c0.8,11.7,5.1,46.9,5.5,75.5c0.4,28.6-19.3,95.8-18.6,125.4s11.9,48.6,8.6,53.9
			c-3.3,5.3-14,8.6-17.7,8.6c0,0-2.7,3.3-7.4,1.9c-4.7-1.3-6-12.6-5-24.9c1-12.3,0.6-28.6-1.7-35.6c-2.4-7,8.3-16.3,6.7-27.2
			c-1.7-11.1,1.9-19.7-2.7-48.8c-4.7-29.2-3.7-58.9-0.6-73.1c3-14.3-3.7-45.6-6.2-54.9c-2.7-9.3-9.3-78.1-9.3-78.1
			s-6.6,68.8-9.3,78.1c-2.7,9.3-9.3,40.7-6.2,54.9c3,14.3,3.9,43.9-0.6,73.1c-4.7,29.2-1,37.9-2.7,48.8c-1.7,11.1,9,20.3,6.7,27.2
			c-2.4,7-2.7,23.3-1.7,35.6c1,12.3-0.4,23.6-5,24.9c-4.7,1.3-7.4-1.9-7.4-1.9c-3.7,0-14.3-3.3-17.7-8.6c-3.3-5.3,8-24.3,8.6-53.9
			c0.6-29.6-19-96.8-18.6-125.4c0.4-28.6,4.7-63.8,5.5-75.5c0.8-11.7-15.1-78.1-15.5-113.8s24-89.8,25.3-93.8
			c1.3-3.9-1-35.9-5.3-40.9c-4.3-4.9-7-21.2-7-21.2c0,0.4,0,0.8,0,1.3c0,11.7-9.9,45.9-12.3,55.6c-2.4,9.7,0.6,9.3-1.7,38.5
			c-2.4,29.2-16.9,56.9-14.3,66.6c2.7,9.7,1,19,1,27.2c0,8.3,10.6,14.3,9.3,16c-1.3,1.7-3.3,2.4-3.3,2.4s3,2.4,1.3,4.7
			c-1.7,2.4-2.4,1.3-4.3,2.7c-1.9,1.3-10.3-4.1-10.3-4.1s1,3.7-1,3.9c-1.9,0.4-6-4.7-9.3-11.7C792.9,405.6,798.9,375.7,798.9,375.7z
			"/>
	</g>
</g>
</svg>
