<?xml version="1.0" encoding="utf-8"?>
<!-- Generator: Adobe Illustrator 18.1.1, SVG Export Plug-In . SVG Version: 6.00 Build 0)  -->
<svg version="1.1" id="Layer_1" xmlns="http://www.w3.org/2000/svg" xmlns:xlink="http://www.w3.org/1999/xlink" x="0px" y="0px"
	 viewBox="64.3 620.5 48 48" enable-background="new 64.3 620.5 48 48" xml:space="preserve">
<path fill="#8FCDBE" d="M92.1,634.7c0.8,0.2,1.6,0.3,2.4,0.3c2.4,0,4.6-0.9,6.3-2.6c1.7-1.7,2.6-4,2.6-6.6l0-0.6l-0.6-0.2
	c-1-0.3-1.9-0.5-2.9-0.5c-2.4,0-4.6,0.9-6.3,2.6c-1.2,1.2-1.9,2.6-2.3,4.2c-0.1-2.1-0.7-4-2-5.7c-2-2.8-5.2-4.3-8.7-4.3l-0.8,0
	l-0.2,0.6c-1.1,3.4-0.5,6.9,1.5,9.6c1.7,2.4,4.3,3.9,7.3,4.2c-0.6,0.7-1.1,1.6-1.6,2.7c-1-2.1-3.1-3.6-5.6-3.6c-1,0-1.9,0.2-2.8,0.6
	l-0.6,0.3l0.1,0.6c0.4,3.2,2.9,5.6,6.1,5.6c0.5,0,1-0.1,1.6-0.2c-0.2,0.8-0.3,1.6-0.4,2.5H73.2v8.5h2l1.7,14.7h17.9l1.7-14.7h2v-8.5
	H86.9C87.6,637.8,91.1,635.3,92.1,634.7z M84,640.4c-2.1,0-3.8-1.4-4.3-3.4c0.5-0.1,0.9-0.2,1.4-0.2c2,0,3.7,1.4,4.3,3.4
	C84.9,640.3,84.4,640.4,84,640.4z M93.2,665.9H78.5L77,653h17.7L93.2,665.9z M96.7,651.2H75v-5h21.7L96.7,651.2L96.7,651.2z
	 M94.8,628.5c1.7-1.8,4.3-2.5,6.8-1.9c-0.1,1.8-0.8,3.4-2,4.6c-1.3,1.3-3.1,2.1-5,2.1c-0.6,0-1.2-0.1-1.7-0.2
	C92.9,631.3,93.6,629.7,94.8,628.5z M82.5,630.6c-1.5-2.1-2-4.8-1.4-7.4c2.8,0.1,5.2,1.4,6.8,3.6c1.5,2.1,2,4.8,1.4,7.4
	C86.5,634,84,632.7,82.5,630.6z"/>
</svg>
