<?xml version="1.0" encoding="utf-8"?>
<!-- Generator: Adobe Illustrator 18.1.1, SVG Export Plug-In . SVG Version: 6.00 Build 0)  -->
<svg version="1.1" id="Layer_1" xmlns="http://www.w3.org/2000/svg" xmlns:xlink="http://www.w3.org/1999/xlink" x="0px" y="0px"
	 viewBox="488 360 48 48" enable-background="new 488 360 48 48" xml:space="preserve">
<g>
	<path fill="#228896" d="M529.1,397.5c-0.2-0.3-0.4-0.4-0.7-0.4s-0.5,0.2-0.7,0.4c-0.4,0.7-2.4,4.1-2.4,5.8c0,2,1.4,3.6,3.1,3.6
		c1.7,0,3.1-1.6,3.1-3.6C531.4,401.6,529.5,398.2,529.1,397.5z M528.4,405.4c-0.8,0-1.5-0.9-1.5-2c0-0.8,0.8-2.4,1.5-3.8
		c0.7,1.4,1.5,3.1,1.5,3.8C529.9,404.4,529.2,405.4,528.4,405.4z"/>
	<path fill="#228896" d="M529,394c0.3-0.3,0.3-0.8,0-1.1l-3.4-3.4l-1.4-6.4c-0.1-0.2-0.1-0.3-0.2-0.4l-11.3-11.2l1.6-1.6
		c0.3-0.3,0.3-0.8,0-1.1l-2.1-2.1c-0.3-0.3-0.8-0.3-1.1,0l-1.6,1.6l-4.4-4.4c-1.7-1.8-4.1-2.8-6.3-2.8c-1.7,0-3.4,0.6-4.5,1.8
		c-2.7,2.7-2.2,7.6,1,10.8l4.4,4.4l-1.6,1.6c-0.3,0.3-0.3,0.8,0,1.1l2.1,2.1c0.2,0.2,0.4,0.2,0.6,0.2s0.4-0.1,0.6-0.2l1.6-1.6
		l11.3,11.3c0.1,0.1,0.3,0.2,0.4,0.2l6.4,1.4l3.4,3.4c0.2,0.2,0.4,0.2,0.6,0.2c0.2,0,0.4-0.1,0.6-0.2L529,394z M500.8,381.3l-1-1
		l1.6-1.6c0.2-0.2,0.2-0.4,0.2-0.6c0-0.2-0.1-0.4-0.2-0.6l-4.9-4.9c-2.7-2.7-3.2-6.6-1-8.7c0.9-0.9,2-1.3,3.4-1.3
		c1.8,0,3.8,0.9,5.3,2.3l4.9,4.9c0.3,0.3,0.8,0.3,1.1,0l1.6-1.6l1,1L500.8,381.3z M521.9,392.9c-0.1-0.1-0.3-0.2-0.4-0.2l-6.4-1.4
		L504,380.2l7.6-7.6l11.1,11.1l1.4,6.5c0.1,0.2,0.1,0.3,0.2,0.4l3,3l-2.4,2.4L521.9,392.9z"/>
</g>
</svg>
