<?xml version="1.0" encoding="utf-8"?>
<!-- Generator: Adobe Illustrator 18.1.1, SVG Export Plug-In . SVG Version: 6.00 Build 0)  -->
<svg version="1.1" id="Layer_1" xmlns="http://www.w3.org/2000/svg" xmlns:xlink="http://www.w3.org/1999/xlink" x="0px" y="0px"
	 viewBox="488 360 48 48" enable-background="new 488 360 48 48" xml:space="preserve">
<g>
	<g>
		<path fill="#228896" d="M525.2,376.9c-1.3-1.3-2.7-2.7-3.5-4.9c1.1-0.5,1.7-1.1,1.7-1.9V363h0c-0.2-2.2-5.2-2.8-8.2-2.8
			c-3,0-8,0.6-8.2,2.8h0v7.1c0,0.8,0.7,1.4,1.7,1.9c-0.8,2.2-2.2,3.6-3.5,4.9c-1.9,1.9-3.9,3.8-3.9,8.1v9.5c0.5-0.1,1-0.1,1.5-0.2
			V385c0-0.3,0-0.7,0-1c3.8,1.4,7.7,2.1,12.3,2.1c4.3,0,9-1.1,12.3-2.2c0,0.3,0.1,0.7,0.1,1.1v10.8c-2.8,1.4-6.7,2.2-11.6,2.2
			c-1.2,0-2.4,0-3.6-0.1c0.3,0.5,0.4,1,0.4,1.5c0,0,0,0.1,0,0.1c1,0.1,2.1,0.1,3.1,0.1c4.7,0,8.6-0.7,11.5-2
			c-0.4,2.2-2.3,5.7-10.7,5.7h-3.3c-0.3,0-0.6,0-0.9,0v0.9c0,0,0,0.3-0.1,0.7c0.3,0,0.7,0,1.1,0h3.3c11.4,0,12.3-6.2,12.3-8.1V385
			C529.1,380.7,527.1,378.8,525.2,376.9z M521.9,370c-0.1,0.2-0.4,0.4-1,0.7v-5.3c0.4-0.1,0.7-0.2,1-0.4L521.9,370z M508.4,363.2
			c0.2-0.4,2.4-1.5,6.7-1.5c4.3,0,6.5,1,6.7,1.4v0c-0.2,0.4-2.4,1.5-6.7,1.5S508.6,363.5,508.4,363.2L508.4,363.2z M520.3,365.5v5.3
			c-0.3,0.1-0.6,0.2-1,0.3v-5.4C519.6,365.7,520,365.6,520.3,365.5z M518.8,365.9v5.4c-0.3,0.1-0.7,0.1-1,0.2V366
			C518.1,366,518.4,365.9,518.8,365.9z M517.2,366v5.4c-0.3,0-0.7,0.1-1,0.1v-5.4C516.5,366.1,516.9,366.1,517.2,366z M515.7,366.1
			v5.4c-0.2,0-0.3,0-0.5,0c-0.2,0-0.3,0-0.5,0v-5.4c0.2,0,0.4,0,0.5,0C515.3,366.1,515.5,366.1,515.7,366.1z M514.1,366.1v5.4
			c-0.4,0-0.7,0-1-0.1V366C513.4,366.1,513.8,366.1,514.1,366.1z M512.6,366v5.4c-0.4,0-0.7-0.1-1-0.1v-5.4
			C511.9,365.9,512.2,366,512.6,366z M511,365.8v5.4c-0.4-0.1-0.7-0.2-1-0.2v-5.4C510.3,365.6,510.7,365.7,511,365.8z M508.4,370.1
			V365c0.3,0.1,0.7,0.3,1,0.4v5.3C508.9,370.5,508.5,370.3,508.4,370.1z M515.1,384.6c-4.6,0-8.3-0.7-12.1-2.1
			c0.5-2,1.7-3.2,3.1-4.5c1.4-1.4,2.9-2.9,3.8-5.5c1.7,0.4,3.6,0.6,5.1,0.6c1.8,0,3.6-0.2,5.1-0.6c0.9,2.6,2.5,4.1,3.9,5.5
			c1.3,1.3,2.5,2.5,3.1,4.4C524,383.5,519.4,384.6,515.1,384.6z"/>
		<path fill="#228896" d="M495,403.5c0,0.8,0.3,1.5,0.9,2.1c1.4,1.4,4.2,2.3,7.4,2.3c0,0,0.1,0,0.1,0c7.8,0,8.4-4.1,8.4-4.6l0-3.7
			c-0.3-2.4-3.8-4.1-8.4-4.1h-0.1c-2.1,0-4.2,0.3-5.7,1.1c-1.6,0.8-2.6,1.8-2.7,3 M510.3,399.9c0,0.7-0.7,1.3-1.8,1.8
			c-1.2,0.6-2.7,0.9-4.3,1l3.1-5.2C509.1,398.1,510.3,399,510.3,399.9z M504.5,397.1c0.6,0,1.1,0.1,1.6,0.2l-3.4,5.7
			c-0.1,0.1-0.1,0.1-0.2,0.2c-0.3,0.2-0.6,0.5-1.1,0.4c-0.5-0.1-0.6-0.3-0.7-0.5L504.5,397.1z M498.3,398c1.3-0.7,3.2-0.9,5.1-0.9h0
			l-3.3,5.4c-2.1-0.5-3.6-1.5-3.6-2.5C496.4,399.2,497.1,398.6,498.3,398z M510.5,403.3c0,0.3-0.7,3.1-7,3.1c-2.7,0-5.3-0.7-6.4-1.9
			c-0.4-0.4-0.5-0.7-0.5-1v-1c0.5,0.6,1.8,1.1,3.1,1.4c0.2,0.3,0.6,1,1.6,1.3c1.3,0.3,2.1-0.4,2.4-0.7c2.1,0,4.1-0.5,5.6-1.2
			c0.5-0.2,0.8-0.5,1.3-0.8V403.3z"/>
	</g>
</g>
</svg>
