<?xml version="1.0" encoding="utf-8"?>
<!-- Generator: Adobe Illustrator 18.1.1, SVG Export Plug-In . SVG Version: 6.00 Build 0)  -->
<svg version="1.1" id="Capa_1" xmlns="http://www.w3.org/2000/svg" xmlns:xlink="http://www.w3.org/1999/xlink" x="0px" y="0px"
	 viewBox="-371.3 361.3 48 48" enable-background="new -371.3 361.3 48 48" xml:space="preserve">
<g>
	<path fill="#228896" d="M-326,388.8c-1.4-1.4-3.3-2.1-5.2-2.1c-0.9,0-1.7,0.2-2.5,0.5v-7c0-3.2-2.6-5.7-5.7-5.7
		c-0.9,0-1.7,0.2-2.5,0.6c-3.1-3.8-7.6-5.9-12.6-5.9c-9,0-16.3,7.3-16.3,16.3c0,9,7.3,16.3,16.3,16.3c3.6,0,7.2-1.2,10-3.5
		c1,1.8,2.9,3.1,5,3.1c1.3,0,2.6-0.5,3.6-1.3c1.3,1.1,3,1.7,4.7,1.7c2,0,3.9-0.8,5.3-2.2c1.4-1.4,2.2-3.3,2.1-5.3
		C-323.8,392.1-324.6,390.2-326,388.8z M-327.9,389.5l-7.9,8c-1.7-2.2-1.5-5.4,0.5-7.4c1.1-1.1,2.5-1.7,4.1-1.7
		C-330,388.4-328.9,388.8-327.9,389.5z M-335.5,380.1v6.6h-8v-6.6c0-2.2,1.8-4,4-4C-337.3,376.1-335.5,377.9-335.5,380.1z
		 M-353.7,399.9v-2.7c0-0.5-0.4-0.9-0.9-0.9c-0.5,0-0.9,0.4-0.9,0.9v2.7c-7.4-0.4-13.2-6.4-13.6-13.7h2.6c0.5,0,0.9-0.4,0.9-0.9
		c0-0.5-0.4-0.9-0.9-0.9h-2.6c0.5-7.3,6.3-13.1,13.6-13.6v2.5c0,0.5,0.4,0.9,0.9,0.9c0.5,0,0.9-0.4,0.9-0.9v-2.5
		c4,0.2,7.7,2.1,10.2,5.1c-1.1,1-1.8,2.5-1.8,4.1v15.4c0,0.3,0,0.6,0.1,0.9C-347.6,398.5-350.6,399.7-353.7,399.9z M-343.5,395.5
		v-7.1h7.5c-0.2,0.2-0.4,0.3-0.6,0.5c-2.6,2.7-2.8,6.9-0.6,9.8c-0.7,0.5-1.5,0.8-2.4,0.8C-341.7,399.5-343.5,397.7-343.5,395.5z
		 M-327.2,398.2c-1.9,2-5.2,2.2-7.4,0.6l7.9-8c0.7,1,1.1,2.1,1.1,3.4C-325.5,395.6-326.1,397.1-327.2,398.2z M-353.7,377.5v8.1
		c0,0.2-0.1,0.4-0.2,0.6l-4.1,4.8c-0.2,0.2-0.4,0.3-0.7,0.3c-0.2,0-0.4-0.1-0.6-0.2c-0.4-0.3-0.4-0.9-0.1-1.2l3.9-4.6v-7.8
		c0-0.5,0.4-0.9,0.9-0.9C-354.1,376.6-353.7,377-353.7,377.5z"/>
</g>
</svg>
