<?xml version="1.0" encoding="utf-8"?>
<!-- Generator: Adobe Illustrator 18.1.1, SVG Export Plug-In . SVG Version: 6.00 Build 0)  -->
<svg version="1.1" id="Capa_1" xmlns="http://www.w3.org/2000/svg" xmlns:xlink="http://www.w3.org/1999/xlink" x="0px" y="0px"
	 viewBox="-371.3 361.3 48 48" enable-background="new -371.3 361.3 48 48" xml:space="preserve">
<g>
	<g>
		<path fill="#228896" d="M-334.7,378.5c-1.3-1.3-2.6-2.6-3.4-4.7c1-0.5,1.7-1.1,1.7-1.9v-6.8h0c-0.2-2.1-5-2.7-7.9-2.7
			c-2.9,0-7.7,0.6-7.9,2.7h0v6.9c0,0.8,0.6,1.4,1.6,1.8c-0.8,2.1-2.1,3.4-3.3,4.7c-1.8,1.8-3.7,3.7-3.7,7.8v9.1
			c0.5-0.1,1-0.1,1.5-0.1v-9c0-0.3,0-0.6,0-0.9c3.7,1.4,7.4,2,11.8,2c4.2,0,8.7-1,11.8-2.1c0,0.3,0.1,0.7,0.1,1v10.4
			c-2.7,1.4-6.4,2.1-11.1,2.1c-1.2,0-2.3,0-3.4-0.1c0.3,0.5,0.4,0.9,0.4,1.4c0,0,0,0.1,0,0.1c1,0.1,2,0.1,3,0.1
			c4.5,0,8.3-0.6,11.1-1.9c-0.3,2.1-2.2,5.4-10.3,5.4h-3.1c-0.3,0-0.6,0-0.9,0v0.9c0,0,0,0.3-0.1,0.6c0.3,0,0.7,0,1,0h3.1
			c11,0,11.8-6,11.8-7.8v-11.2C-330.9,382.2-332.9,380.3-334.7,378.5z M-337.9,371.9c-0.1,0.2-0.4,0.4-1,0.6v-5.1
			c0.4-0.1,0.7-0.2,1-0.4L-337.9,371.9z M-350.8,365.3c0.2-0.4,2.3-1.4,6.4-1.4c4.2,0,6.3,1,6.4,1.4v0c-0.2,0.4-2.3,1.4-6.4,1.4
			S-350.6,365.7-350.8,365.3L-350.8,365.3z M-339.4,367.6v5.1c-0.3,0.1-0.6,0.2-1,0.3v-5.1C-340,367.8-339.7,367.7-339.4,367.6z
			 M-340.9,367.9v5.2c-0.3,0.1-0.6,0.1-1,0.1V368C-341.5,368-341.2,368-340.9,367.9z M-342.3,368.1v5.2c-0.3,0-0.6,0.1-1,0.1v-5.2
			C-343,368.1-342.7,368.1-342.3,368.1z M-343.8,368.2v5.2c-0.2,0-0.3,0-0.5,0c-0.2,0-0.3,0-0.5,0v-5.2c0.2,0,0.3,0,0.5,0
			C-344.2,368.2-344,368.2-343.8,368.2z M-345.3,368.2v5.2c-0.3,0-0.7,0-1-0.1v-5.2C-346,368.1-345.6,368.1-345.3,368.2z
			 M-346.8,368v5.2c-0.4,0-0.7-0.1-1-0.1v-5.2C-347.5,368-347.1,368-346.8,368z M-348.3,367.8v5.2c-0.4-0.1-0.7-0.2-1-0.2v-5.1
			C-349,367.7-348.6,367.8-348.3,367.8z M-350.8,372v-4.9c0.3,0.1,0.6,0.3,1,0.4v5.1C-350.4,372.4-350.7,372.2-350.8,372z
			 M-344.3,385.9c-4.4,0-8-0.6-11.6-2c0.5-1.9,1.7-3,3-4.3c1.3-1.3,2.8-2.8,3.7-5.3c1.6,0.4,3.5,0.5,4.9,0.5c1.7,0,3.4-0.2,4.9-0.6
			c0.9,2.5,2.4,4,3.7,5.3c1.3,1.2,2.4,2.4,3,4.2C-335.8,384.8-340.2,385.9-344.3,385.9z"/>
		<path fill="#228896" d="M-355.6,396.4h-0.1c-2.1,0-4,0.3-5.5,1.1c-1.6,0.8-2.5,1.7-2.5,2.9l0.1,3.7c0,0.7,0.3,1.4,0.9,2
			c1.4,1.4,4,2.2,7.1,2.2c0,0,0.1,0,0.1,0c7.5,0,8-4,8.1-4.4l0-3.5C-347.8,398-351.2,396.4-355.6,396.4z M-349,400.6
			c0,0.6-0.6,1.2-1.8,1.7c-1.1,0.5-2.6,0.9-4.1,1l2.9-5C-350.1,398.9-349,399.7-349,400.6z M-354.5,397.9c0.6,0,1.1,0.1,1.6,0.2
			l-3.2,5.4c-0.1,0-0.1,0.1-0.2,0.1c-0.3,0.2-0.6,0.5-1,0.4c-0.5-0.1-0.6-0.3-0.7-0.5L-354.5,397.9z M-360.5,398.8
			c1.3-0.6,3-0.9,4.9-0.9h0l-3.2,5.1c-2.1-0.5-3.4-1.4-3.4-2.4C-362.3,400-361.6,399.3-360.5,398.8z M-348.8,403.8
			c0,0.3-0.7,2.9-6.7,3c-2.6,0-5.1-0.7-6.2-1.8c-0.3-0.3-0.5-0.7-0.5-1v-1c0.5,0.6,1.7,1,2.9,1.3c0.2,0.3,0.6,1,1.5,1.2
			c1.3,0.3,2-0.4,2.3-0.6c2,0,3.9-0.5,5.4-1.2c0.5-0.2,0.8-0.5,1.2-0.8V403.8z"/>
	</g>
</g>
</svg>
