<?xml version="1.0" encoding="utf-8"?>
<!-- Generator: Adobe Illustrator 18.1.1, SVG Export Plug-In . SVG Version: 6.00 Build 0)  -->
<svg version="1.1" id="Layer_1" xmlns="http://www.w3.org/2000/svg" xmlns:xlink="http://www.w3.org/1999/xlink" x="0px" y="0px"
	 viewBox="488 360 48 48" enable-background="new 488 360 48 48" xml:space="preserve">
<g>
	<path fill="#228896" d="M512,360.4c-13,0-23.6,10.6-23.6,23.6c0,13,10.6,23.6,23.6,23.6c13,0,23.6-10.6,23.6-23.6
		C535.6,371,525,360.4,512,360.4z M534.3,383.3h-8.5c-0.3-7.1-6-12.7-13.1-13.1v-8.5C524.4,362.1,533.9,371.6,534.3,383.3z
		 M524.4,384.7c-0.3,6.3-5.4,11.4-11.8,11.8v-4.8h-1.3v4.8c-6.3-0.3-11.4-5.4-11.8-11.8h4.8v-1.3h-4.8c0.3-6.3,5.4-11.4,11.8-11.8
		v4.8h1.3v-4.8c6.3,0.3,11.4,5.4,11.8,11.8h-4.8v1.3H524.4z M511.3,361.7v8.5c-7.1,0.3-12.7,6-13.1,13.1h-8.5
		C490.1,371.6,499.6,362.1,511.3,361.7z M489.7,384.7h8.5c0.3,7.1,6,12.7,13.1,13.1v8.5C499.6,405.9,490.1,396.4,489.7,384.7z
		 M512.7,406.3v-8.5c7.1-0.3,12.7-6,13.1-13.1h8.5C533.9,396.4,524.4,405.9,512.7,406.3z"/>
</g>
</svg>
