<?xml version="1.0" encoding="utf-8"?>
<!-- Generator: Adobe Illustrator 18.1.1, SVG Export Plug-In . SVG Version: 6.00 Build 0)  -->
<svg version="1.1" id="Layer_1" xmlns="http://www.w3.org/2000/svg" xmlns:xlink="http://www.w3.org/1999/xlink" x="0px" y="0px"
	 viewBox="488 360 48 48" enable-background="new 488 360 48 48" xml:space="preserve">
<g>
	<path fill="#228896" d="M512,407.1c-12.7,0-23.1-10.3-23.1-23.1s10.3-23.1,23.1-23.1c12.7,0,23.1,10.3,23.1,23.1
		S524.7,407.1,512,407.1L512,407.1z M512,362.7c-11.7,0-21.3,9.5-21.3,21.3c0,11.7,9.5,21.3,21.3,21.3c11.7,0,21.3-9.5,21.3-21.3
		C533.3,372.3,523.7,362.7,512,362.7L512,362.7z M512,362.7"/>
	<path fill="#228896" d="M514.2,372.4c0,1.2-0.9,2.2-2.3,2.2c-1.3,0-2.2-1-2.2-2.2c0-1.3,0.9-2.3,2.3-2.3
		C513.4,370.1,514.2,371.1,514.2,372.4L514.2,372.4z M510.2,397.9V378h3.6v19.9H510.2z M510.2,397.9"/>
</g>
</svg>
