<?xml version="1.0" encoding="utf-8"?>
<!-- Generator: Adobe Illustrator 18.1.1, SVG Export Plug-In . SVG Version: 6.00 Build 0)  -->
<svg version="1.1" id="Layer_1" xmlns="http://www.w3.org/2000/svg" xmlns:xlink="http://www.w3.org/1999/xlink" x="0px" y="0px"
	 viewBox="488 360 48 48" enable-background="new 488 360 48 48" xml:space="preserve">
<path fill="#FFFFFF" d="M535.5,384.1c0-1.1-0.9-1.9-1.9-1.9H514v-19.7c0-1.1-0.9-1.9-1.9-1.9c-1.1,0-1.9,0.9-1.9,1.9v19.7h-19.7
	c-1.1,0-1.9,0.9-1.9,1.9c0,1.1,0.9,1.9,1.9,1.9h19.7v19.7c0,1.1,0.9,1.9,1.9,1.8c1.1,0,1.9-0.9,1.9-1.9V386h19.7
	C534.8,386,535.7,385.1,535.5,384.1z"/>
</svg>
